<?xml version="1.0" encoding="utf-8"?>
<!-- Generator: Adobe Illustrator 25.2.1, SVG Export Plug-In . SVG Version: 6.00 Build 0)  -->
<svg version="1.1" id="Layer_1" xmlns="http://www.w3.org/2000/svg" xmlns:xlink="http://www.w3.org/1999/xlink" x="0px" y="0px"
	 viewBox="0 0 377.28 377.28" style="enable-background:new 0 0 377.28 377.28;" xml:space="preserve">
<style type="text/css">
	.st0{fill:#282728;}
	.st1{fill:url(#SVGID_1_);}
	.st2{fill:#8DD5E3;}
	.st3{fill:#58C3BA;}
	.st4{fill:#FBE9C3;}
	.st5{fill:#EEB124;}
</style>
<g>
	<circle class="st0" cx="194.66" cy="178.81" r="141.65"/>
	<radialGradient id="SVGID_1_" cx="194.66" cy="178.8073" r="122.1396" gradientUnits="userSpaceOnUse">
		<stop  offset="0" style="stop-color:#487ABD"/>
		<stop  offset="0.1695" style="stop-color:#4774B2"/>
		<stop  offset="0.4231" style="stop-color:#42689D"/>
		<stop  offset="0.7277" style="stop-color:#39567F"/>
		<stop  offset="1" style="stop-color:#2F4363"/>
	</radialGradient>
	<circle class="st1" cx="194.66" cy="178.81" r="122.14"/>
	<g>
		<path class="st2" d="M194.66,243.24c-35.53,0-64.43-28.9-64.43-64.43s28.9-64.43,64.43-64.43s64.43,28.9,64.43,64.43
			S230.19,243.24,194.66,243.24z M194.66,122.78c-30.89,0-56.03,25.14-56.03,56.03s25.14,56.03,56.03,56.03s56.03-25.14,56.03-56.03
			S225.55,122.78,194.66,122.78z"/>
	</g>
	
		<rect x="169.06" y="283.91" transform="matrix(0.7071 -0.7071 0.7071 0.7071 -161.8439 228.2996)" class="st0" width="51.21" height="51.21"/>
	
		<rect x="179.38" y="294.23" transform="matrix(0.7071 -0.7071 0.7071 0.7071 -161.8439 228.2996)" class="st3" width="30.57" height="30.57"/>
	
		<rect x="284.72" y="97.43" transform="matrix(0.9601 0.2796 -0.2796 0.9601 46.7732 -81.8561)" class="st0" width="51.21" height="51.21"/>
	
		<rect x="295.04" y="107.75" transform="matrix(0.9601 0.2796 -0.2796 0.9601 46.7732 -81.8561)" class="st3" width="30.57" height="30.57"/>
	
		<rect x="54.18" y="97.43" transform="matrix(-0.9601 0.2796 -0.2796 -0.9601 190.7911 218.8509)" class="st0" width="51.21" height="51.21"/>
	
		<rect x="64.5" y="107.75" transform="matrix(-0.9601 0.2796 -0.2796 -0.9601 190.7911 218.8509)" class="st3" width="30.57" height="30.57"/>
	<g>
		<polygon class="st4" points="95.11,234.16 179.36,91.65 173.5,68.79 205.78,96.53 135.52,212.03 203.2,212.03 218.25,234.16 		"/>
		<path class="st5" d="M177.7,75.55l24.98,21.47l-66.99,110.13l-4.42,7.27h8.51h62.16l11.79,17.35H99.31l81.6-138.04l1.01-1.7
			l-0.49-1.92L177.7,75.55 M169.29,62.02l7.5,29.27L90.92,236.55h131.84l-18.3-26.91h-64.69l69.1-113.6L169.29,62.02L169.29,62.02z"
			/>
	</g>
	<g>
		<polygon class="st4" points="246.09,234.16 233.84,213.61 257.43,213.61 235.95,184.27 181.84,185.4 188.04,170.07 225.31,170.07 
			209.36,147.04 220.81,129.72 293.8,234.16 		"/>
		<path class="st5" d="M220.86,133.97l68.35,97.8h-41.77l-9.4-15.76h14.67h9.43l-5.57-7.61l-17.96-24.54l-1.47-2.01l-2.49,0.05
			l-49.24,1.03l4.24-10.47h31.1h9.13l-5.2-7.51l-12.43-17.95L220.86,133.97 M220.75,125.46l-14.27,21.61l14.27,20.61h-34.32
			l-8.17,20.19l56.5-1.19l17.96,24.54h-23.09l15.11,25.33h53.66L220.75,125.46L220.75,125.46z"/>
	</g>
</g>
</svg>
